# xmcd
#
# Track frame offsets:
#	150
#	30804
#	51955
#	73686
#	94839
#	124284
#	152557
#	161979
#	182154
#
# Disc length: 2754 seconds
#
# Revision: 2
# Processed by: cddbd v1.5.2PL0 Copyright (c) Steve Scherf et al.
# Submitted via: audiograbber 1.83.01
#
DISCID=750ac009
DTITLE=Bob Dylan - The Bootleg Series Vol. 13 1979-1981 Deluxe Edition: Trouble
DTITLE=No More [CD 6) - "Best Of" Live in Toronto 1980
DYEAR=2017
DGENRE=Rock
TTITLE0=Slow Train [live at Massey Hall - April 18, 1980]
TTITLE1=Do Right To Me Baby (Do Unto Others) [live at Massey Hall - April 20, 1
TTITLE1=980]
TTITLE2=Solid Rock [live at Massey Hall - April 20, 1980]
TTITLE3=Saving Grace [live at Massey Hall - April 18, 1980]
TTITLE4=What Can I Do For You? [live at Massey Hall - April 19, 1980]
TTITLE5=In The Garden [live at Massey Hall - April 20, 1980]
TTITLE6=Band Introductions [live at Massey Hall - April 20, 1980]
TTITLE7=Are You Ready? [live at Massey Hall - April 19, 1980]
TTITLE8=Pressing On [live at Massey Hall - April 18, 1980]
EXTD=
EXTT0=
EXTT1=
EXTT2=
EXTT3=
EXTT4=
EXTT5=
EXTT6=
EXTT7=
EXTT8=
PLAYORDER=
